<svg xmlns="http://www.w3.org/2000/svg" viewBox="0 0 960 540" width="960" height="540">
<defs><linearGradient id="bg" x1="0%" y1="0%" x2="100%" y2="100%"><stop offset="0%" style="stop-color:#1A1A1A"/><stop offset="100%" style="stop-color:#2A2A2A"/></linearGradient></defs>
<rect width="960" height="540" fill="url(#bg)"/>
<rect x="0" y="0" width="960" height="3" fill="#B8942E"/>
<text x="40" y="45" font-family="Montserrat,Arial,sans-serif" font-weight="700" font-size="14" fill="#B8942E" letter-spacing="2">KAVIAR Pet</text>
<text x="880" y="45" font-family="Inter,Arial,sans-serif" font-weight="400" font-size="13" fill="#999" text-anchor="end">Vídeo 1 | 16/17</text>
<line x1="40" y1="60" x2="920" y2="60" stroke="#333" stroke-width="0.5"/>
<text x="480" y="110" font-family="Montserrat,Arial,sans-serif" font-weight="700" font-size="28" fill="#FFF" text-anchor="middle">RESUMO — FLUXO COMPLETO</text>
<!-- Fluxo visual -->
<rect x="80" y="160" width="150" height="60" rx="8" fill="#222" stroke="#B8942E" stroke-width="1.5"/>
<text x="155" y="195" font-family="Inter,Arial,sans-serif" font-weight="600" font-size="14" fill="#EEE" text-anchor="middle">Preparar veículo</text>
<text x="245" y="195" font-family="Arial" font-size="20" fill="#B8942E">→</text>
<rect x="265" y="160" width="150" height="60" rx="8" fill="#222" stroke="#B8942E" stroke-width="1.5"/>
<text x="340" y="195" font-family="Inter,Arial,sans-serif" font-weight="600" font-size="14" fill="#EEE" text-anchor="middle">Checklist chegada</text>
<text x="430" y="195" font-family="Arial" font-size="20" fill="#B8942E">→</text>
<rect x="450" y="160" width="150" height="60" rx="8" fill="#222" stroke="#B8942E" stroke-width="1.5"/>
<text x="525" y="195" font-family="Inter,Arial,sans-serif" font-weight="600" font-size="14" fill="#EEE" text-anchor="middle">Foto obrigatória</text>
<text x="615" y="195" font-family="Arial" font-size="20" fill="#B8942E">→</text>
<rect x="635" y="160" width="150" height="60" rx="8" fill="#222" stroke="#B8942E" stroke-width="1.5"/>
<text x="710" y="195" font-family="Inter,Arial,sans-serif" font-weight="600" font-size="14" fill="#EEE" text-anchor="middle">Central valida</text>
<text x="800" y="195" font-family="Arial" font-size="20" fill="#B8942E">→</text>
<rect x="820" y="160" width="110" height="60" rx="8" fill="#2D6B4F" stroke="#2D6B4F" stroke-width="1.5"/>
<text x="875" y="195" font-family="Inter,Arial,sans-serif" font-weight="700" font-size="14" fill="#FFF" text-anchor="middle">CORRIDA</text>
<!-- Texto final -->
<text x="480" y="300" font-family="Inter,Arial,sans-serif" font-weight="500" font-size="20" fill="#EEE" text-anchor="middle">Veículo preparado → Checklist → Foto → Central → Corrida segura</text>
<rect x="250" y="340" width="460" height="60" rx="8" fill="#1F1A10" stroke="#B8942E" stroke-width="1.5"/>
<text x="480" y="377" font-family="Inter,Arial,sans-serif" font-weight="600" font-size="20" fill="#B8942E" text-anchor="middle">Você está preparado.</text>
<rect x="0" y="490" width="960" height="50" fill="#111"/><rect x="0" y="490" width="960" height="1" fill="#B8942E" opacity="0.4"/>
<text x="480" y="520" font-family="Montserrat,Arial,sans-serif" font-weight="600" font-size="13" fill="#B8942E" text-anchor="middle" letter-spacing="3">KAVIAR PET — TREINAMENTO OBRIGATÓRIO</text>
<rect x="0" y="537" width="960" height="3" fill="#B8942E"/>
</svg>
