<svg xmlns="http://www.w3.org/2000/svg" viewBox="0 0 960 540" width="960" height="540">
<defs><linearGradient id="bg" x1="0%" y1="0%" x2="100%" y2="100%"><stop offset="0%" style="stop-color:#1A1A1A"/><stop offset="100%" style="stop-color:#222"/></linearGradient></defs>
<rect width="960" height="540" fill="url(#bg)"/>
<rect x="0" y="0" width="960" height="3" fill="#B8942E"/>
<g transform="translate(420, 80)"><circle cx="60" cy="60" r="55" fill="none" stroke="#B8942E" stroke-width="2.5"/><path d="M60 15 L85 25 L85 62 C85 80 74 88 60 95 C46 88 35 80 35 62 L35 25 Z" fill="#222" stroke="#B8942E" stroke-width="2"/><ellipse cx="60" cy="62" rx="10" ry="9" fill="#B8942E"/><circle cx="52" cy="50" r="5" fill="#B8942E"/><circle cx="68" cy="50" r="5" fill="#B8942E"/><circle cx="55" cy="42" r="4" fill="#B8942E"/><circle cx="65" cy="42" r="4" fill="#B8942E"/></g>
<text x="480" y="260" font-family="Montserrat,Arial,sans-serif" font-weight="700" font-size="28" fill="#FFF" text-anchor="middle">VÍDEO 1 CONCLUÍDO</text>
<line x1="350" y1="280" x2="610" y2="280" stroke="#B8942E" stroke-width="1.5"/>
<text x="480" y="320" font-family="Inter,Arial,sans-serif" font-weight="400" font-size="20" fill="#EEE" text-anchor="middle">Próximo: Vídeo 2 — Higiene, Atendimento e Responsabilidade</text>
<text x="480" y="380" font-family="Inter,Arial,sans-serif" font-weight="500" font-size="18" fill="#B8942E" text-anchor="middle">Assista o Vídeo 2 para continuar sua certificação</text>
<rect x="0" y="490" width="960" height="50" fill="#111"/><rect x="0" y="490" width="960" height="1" fill="#B8942E" opacity="0.4"/>
<text x="480" y="520" font-family="Montserrat,Arial,sans-serif" font-weight="600" font-size="13" fill="#B8942E" text-anchor="middle" letter-spacing="3">KAVIAR PET — OPERAÇÃO CERTIFICADA DE TRANSPORTE PET</text>
<rect x="0" y="537" width="960" height="3" fill="#B8942E"/>
</svg>
