<svg xmlns="http://www.w3.org/2000/svg" viewBox="0 0 960 540" width="960" height="540">
<defs><linearGradient id="bg" x1="0%" y1="0%" x2="100%" y2="100%"><stop offset="0%" style="stop-color:#1A1A1A"/><stop offset="100%" style="stop-color:#2A2A2A"/></linearGradient></defs>
<rect width="960" height="540" fill="url(#bg)"/>
<rect x="0" y="0" width="960" height="3" fill="#B8942E"/>
<g transform="translate(430, 60)"><circle cx="50" cy="50" r="45" fill="none" stroke="#B8942E" stroke-width="2.5"/><path d="M50 15 L72 23 L72 52 C72 65 62 72 50 78 C38 72 28 65 28 52 L28 23 Z" fill="#222" stroke="#B8942E" stroke-width="2"/><ellipse cx="50" cy="52" rx="10" ry="9" fill="#B8942E"/><circle cx="42" cy="40" r="5" fill="#B8942E"/><circle cx="58" cy="40" r="5" fill="#B8942E"/><circle cx="45" cy="32" r="4" fill="#B8942E"/><circle cx="55" cy="32" r="4" fill="#B8942E"/></g>
<text x="480" y="200" font-family="Montserrat,Arial,sans-serif" font-weight="700" font-size="40" fill="#FFF" text-anchor="middle">TREINAMENTO OBRIGATÓRIO</text>
<line x1="330" y1="220" x2="630" y2="220" stroke="#B8942E" stroke-width="2"/>
<text x="480" y="260" font-family="Inter,Arial,sans-serif" font-weight="400" font-size="24" fill="#B8942E" text-anchor="middle">Vídeo 2: Higiene, Atendimento e Responsabilidade</text>
<text x="480" y="420" font-family="Inter,Arial,sans-serif" font-weight="400" font-size="16" fill="#999" text-anchor="middle">Após este vídeo, responda o questionário — nota mínima 7/10</text>
<rect x="0" y="490" width="960" height="50" fill="#111"/><rect x="0" y="490" width="960" height="1" fill="#B8942E" opacity="0.4"/>
<text x="480" y="520" font-family="Montserrat,Arial,sans-serif" font-weight="600" font-size="13" fill="#B8942E" text-anchor="middle" letter-spacing="3">KAVIAR PET — OPERAÇÃO CERTIFICADA DE TRANSPORTE PET</text>
<rect x="0" y="537" width="960" height="3" fill="#B8942E"/>
</svg>
