<svg xmlns="http://www.w3.org/2000/svg" viewBox="0 0 960 540" width="960" height="540">
<defs><linearGradient id="bg" x1="0%" y1="0%" x2="100%" y2="100%"><stop offset="0%" style="stop-color:#1A1A1A"/><stop offset="100%" style="stop-color:#2A2A2A"/></linearGradient></defs>
<rect width="960" height="540" fill="url(#bg)"/>
<rect x="0" y="0" width="960" height="3" fill="#B8942E"/>
<text x="40" y="45" font-family="Montserrat,Arial,sans-serif" font-weight="700" font-size="14" fill="#B8942E" letter-spacing="2">KAVIAR Pet</text>
<text x="880" y="45" font-family="Inter,Arial,sans-serif" font-weight="400" font-size="13" fill="#999" text-anchor="end">Vídeo 2 | 3/16</text>
<line x1="40" y1="60" x2="920" y2="60" stroke="#333" stroke-width="0.5"/>
<text x="480" y="100" font-family="Montserrat,Arial,sans-serif" font-weight="700" font-size="24" fill="#FFF" text-anchor="middle">HIGIENIZAÇÃO — OBRIGATÓRIA APÓS CADA CORRIDA</text>
<!-- Coluna esquerda: passos -->
<rect x="60" y="120" width="440" height="310" rx="10" fill="#222" stroke="#333" stroke-width="1"/>
<rect x="80" y="140" width="40" height="40" rx="20" fill="#2D6B4F" opacity="0.4"/><text x="100" y="167" font-family="Montserrat,Arial,sans-serif" font-weight="700" font-size="20" fill="#2D6B4F" text-anchor="middle">1</text>
<text x="135" y="167" font-family="Inter,Arial,sans-serif" font-weight="500" font-size="20" fill="#EEE">Retirar pelos com pano</text>
<rect x="80" y="195" width="40" height="40" rx="20" fill="#2D6B4F" opacity="0.4"/><text x="100" y="222" font-family="Montserrat,Arial,sans-serif" font-weight="700" font-size="20" fill="#2D6B4F" text-anchor="middle">2</text>
<text x="135" y="222" font-family="Inter,Arial,sans-serif" font-weight="500" font-size="20" fill="#EEE">Borrifar desinfetante</text>
<rect x="80" y="250" width="40" height="40" rx="20" fill="#2D6B4F" opacity="0.4"/><text x="100" y="277" font-family="Montserrat,Arial,sans-serif" font-weight="700" font-size="20" fill="#2D6B4F" text-anchor="middle">3</text>
<text x="135" y="277" font-family="Inter,Arial,sans-serif" font-weight="500" font-size="20" fill="#EEE">Passar pano limpo</text>
<rect x="80" y="305" width="40" height="40" rx="20" fill="#2D6B4F" opacity="0.4"/><text x="100" y="332" font-family="Montserrat,Arial,sans-serif" font-weight="700" font-size="20" fill="#2D6B4F" text-anchor="middle">4</text>
<text x="135" y="332" font-family="Inter,Arial,sans-serif" font-weight="500" font-size="20" fill="#EEE">Verificar chão e portas</text>
<text x="280" y="400" font-family="Inter,Arial,sans-serif" font-weight="700" font-size="22" fill="#B8942E" text-anchor="middle">⏱️ 2-3 minutos</text>
<!-- Ilustração: motorista higienizando veículo -->
<g transform="translate(530,120) scale(0.82)">
<rect width="380" height="260" rx="10" fill="#141414"/>
<rect x="40" y="80" width="200" height="140" rx="8" fill="#1E1E1E" stroke="#333" stroke-width="1"/>
<rect x="45" y="85" width="190" height="130" rx="6" fill="#222" stroke="#2D6B4F" stroke-width="1" opacity="0.6"/>
<path d="M280,60 Q300,70 310,90 L305,100 Q295,95 285,85 L275,70 Z" fill="#2A2A2A"/>
<path d="M285,85 Q270,110 260,130 L255,140" fill="none" stroke="#3A3A3A" stroke-width="8" stroke-linecap="round"/>
<ellipse cx="255" cy="145" rx="12" ry="8" fill="#3A3A3A"/>
<rect x="243" y="140" width="25" height="15" rx="3" fill="#4A7A5A" opacity="0.8"/>
<rect x="310" y="120" width="14" height="40" rx="4" fill="#2D6B4F"/>
<rect x="308" y="115" width="18" height="10" rx="3" fill="#1A4A3A"/>
<path d="M318,120 L330,110 L332,112 L320,122" fill="#2D6B4F"/>
<circle cx="240" cy="125" r="2" fill="#4CAF50" opacity="0.4"/>
<circle cx="235" cy="118" r="1.5" fill="#4CAF50" opacity="0.3"/>
<circle cx="245" cy="115" r="1" fill="#4CAF50" opacity="0.5"/>
<circle cx="230" cy="122" r="1.5" fill="#4CAF50" opacity="0.3"/>
<path d="M80,120 Q85,118 90,120" fill="none" stroke="#666" stroke-width="0.5" opacity="0.5"/>
<path d="M120,140 Q125,138 130,140" fill="none" stroke="#666" stroke-width="0.5" opacity="0.5"/>
<circle cx="340" cy="200" r="18" fill="none" stroke="#B8942E" stroke-width="2"/>
<line x1="340" y1="200" x2="340" y2="188" stroke="#B8942E" stroke-width="2" stroke-linecap="round"/>
<line x1="340" y1="200" x2="348" y2="203" stroke="#C9A84C" stroke-width="1.5" stroke-linecap="round"/>
<text x="340" y="230" font-family="Arial,sans-serif" font-size="10" fill="#B8942E" text-anchor="middle">2-3 min</text>
<text x="190" y="248" font-family="Arial,sans-serif" font-size="11" fill="#B8942E" text-anchor="middle" letter-spacing="1">HIGIENIZAÇÃO PÓS-CORRIDA</text>
</g>
<text x="720" y="360" font-family="Inter,Arial,sans-serif" font-weight="400" font-size="11" fill="#666" text-anchor="middle">Ilustração — será substituída por vídeo real</text>
<rect x="0" y="490" width="960" height="50" fill="#111"/><rect x="0" y="490" width="960" height="1" fill="#B8942E" opacity="0.4"/>
<text x="480" y="520" font-family="Montserrat,Arial,sans-serif" font-weight="600" font-size="13" fill="#B8942E" text-anchor="middle" letter-spacing="3">KAVIAR PET — TREINAMENTO OBRIGATÓRIO</text>
<rect x="0" y="537" width="960" height="3" fill="#B8942E"/>
</svg>
