<svg xmlns="http://www.w3.org/2000/svg" viewBox="0 0 960 540" width="960" height="540">
<defs><linearGradient id="bg" x1="0%" y1="0%" x2="100%" y2="100%"><stop offset="0%" style="stop-color:#1A1A1A"/><stop offset="100%" style="stop-color:#222"/></linearGradient></defs>
<rect width="960" height="540" fill="url(#bg)"/>
<rect x="0" y="0" width="960" height="3" fill="#B8942E"/>
<g transform="translate(355, 40)"><circle cx="125" cy="125" r="115" fill="none" stroke="#B8942E" stroke-width="3"/><path d="M125 30 L180 52 L180 130 C180 168 155 190 125 205 C95 190 70 168 70 130 L70 52 Z" fill="#222" stroke="#B8942E" stroke-width="2.5"/><ellipse cx="125" cy="130" rx="16" ry="14" fill="#B8942E"/><circle cx="108" cy="108" r="8" fill="#B8942E"/><circle cx="142" cy="108" r="8" fill="#B8942E"/><circle cx="114" cy="92" r="7" fill="#B8942E"/><circle cx="136" cy="92" r="7" fill="#B8942E"/></g>
<text x="480" y="330" font-family="Montserrat,Arial,sans-serif" font-weight="700" font-size="34" fill="#FFF" text-anchor="middle">BEM-VINDO AO KAVIAR PET!</text>
<line x1="300" y1="352" x2="660" y2="352" stroke="#B8942E" stroke-width="2"/>
<text x="480" y="390" font-family="Inter,Arial,sans-serif" font-weight="500" font-size="19" fill="#B8942E" text-anchor="middle">Agora responda o questionário — nota mínima 7/10</text>
<text x="480" y="420" font-family="Inter,Arial,sans-serif" font-weight="400" font-size="18" fill="#EEE" text-anchor="middle">Depois envie as fotos do veículo preparado</text>
<text x="480" y="460" font-family="Inter,Arial,sans-serif" font-weight="400" font-size="15" fill="#999" text-anchor="middle">Questionário → Fotos → Aprovação → Selo Ativo</text>
<rect x="0" y="490" width="960" height="50" fill="#111"/><rect x="0" y="490" width="960" height="1" fill="#B8942E" opacity="0.4"/>
<text x="480" y="520" font-family="Montserrat,Arial,sans-serif" font-weight="600" font-size="13" fill="#B8942E" text-anchor="middle" letter-spacing="3">KAVIAR PET — OPERAÇÃO CERTIFICADA DE TRANSPORTE PET</text>
<rect x="0" y="537" width="960" height="3" fill="#B8942E"/>
</svg>
